<mxfile host="app.diagrams.net" agent="Mozilla/5.0 (Windows NT 10.0; Win64; x64) AppleWebKit/537.36 (KHTML, like Gecko) Chrome/130.0.0.0 Safari/537.36" version="24.8.4">
  <diagram name="Page-1" id="5GoC2AxOQ6Kl19hyqaUY">
    <mxGraphModel dx="3521" dy="1151" grid="1" gridSize="10" guides="1" tooltips="1" connect="1" arrows="1" fold="1" page="1" pageScale="1" pageWidth="827" pageHeight="1169" math="0" shadow="0">
      <root>
        <mxCell id="0" />
        <mxCell id="1" parent="0" />
        <mxCell id="TtQ4k8WLmAkrSQSVWsEt-3" value="" style="edgeStyle=orthogonalEdgeStyle;rounded=0;orthogonalLoop=1;jettySize=auto;html=1;" edge="1" parent="1" source="TtQ4k8WLmAkrSQSVWsEt-1" target="TtQ4k8WLmAkrSQSVWsEt-2">
          <mxGeometry relative="1" as="geometry" />
        </mxCell>
        <mxCell id="TtQ4k8WLmAkrSQSVWsEt-1" value="void listBooks (const vector &amp;lt;string&amp;gt; &amp;amp;books , const vector &amp;lt;bool&amp;gt; &amp;amp;availability)" style="ellipse;whiteSpace=wrap;html=1;" vertex="1" parent="1">
          <mxGeometry x="-725" y="40" width="240" height="120" as="geometry" />
        </mxCell>
        <mxCell id="TtQ4k8WLmAkrSQSVWsEt-5" value="" style="edgeStyle=orthogonalEdgeStyle;rounded=0;orthogonalLoop=1;jettySize=auto;html=1;" edge="1" parent="1" source="TtQ4k8WLmAkrSQSVWsEt-2" target="TtQ4k8WLmAkrSQSVWsEt-4">
          <mxGeometry relative="1" as="geometry" />
        </mxCell>
        <mxCell id="TtQ4k8WLmAkrSQSVWsEt-2" value="cout &amp;lt;&amp;lt; &quot;list of books: \n&quot;;" style="shape=parallelogram;perimeter=parallelogramPerimeter;whiteSpace=wrap;html=1;fixedSize=1;" vertex="1" parent="1">
          <mxGeometry x="-687.5" y="250" width="165" height="60" as="geometry" />
        </mxCell>
        <mxCell id="TtQ4k8WLmAkrSQSVWsEt-7" value="" style="edgeStyle=orthogonalEdgeStyle;rounded=0;orthogonalLoop=1;jettySize=auto;html=1;" edge="1" parent="1" source="TtQ4k8WLmAkrSQSVWsEt-4" target="TtQ4k8WLmAkrSQSVWsEt-6">
          <mxGeometry relative="1" as="geometry" />
        </mxCell>
        <mxCell id="TtQ4k8WLmAkrSQSVWsEt-4" value="for(int i= 0 ; i &amp;lt; books.size();i++)" style="rhombus;whiteSpace=wrap;html=1;" vertex="1" parent="1">
          <mxGeometry x="-730" y="400" width="250" height="80" as="geometry" />
        </mxCell>
        <mxCell id="TtQ4k8WLmAkrSQSVWsEt-9" value="" style="edgeStyle=orthogonalEdgeStyle;rounded=0;orthogonalLoop=1;jettySize=auto;html=1;" edge="1" parent="1" source="TtQ4k8WLmAkrSQSVWsEt-6" target="TtQ4k8WLmAkrSQSVWsEt-8">
          <mxGeometry relative="1" as="geometry" />
        </mxCell>
        <mxCell id="TtQ4k8WLmAkrSQSVWsEt-6" value="cout &amp;lt;&amp;lt; i+1 &amp;lt;&amp;lt; &#39;)&#39; &amp;lt;&amp;lt; books[i];" style="shape=parallelogram;perimeter=parallelogramPerimeter;whiteSpace=wrap;html=1;fixedSize=1;" vertex="1" parent="1">
          <mxGeometry x="-695" y="570" width="180" height="60" as="geometry" />
        </mxCell>
        <mxCell id="TtQ4k8WLmAkrSQSVWsEt-11" value="" style="edgeStyle=orthogonalEdgeStyle;rounded=0;orthogonalLoop=1;jettySize=auto;html=1;" edge="1" parent="1" source="TtQ4k8WLmAkrSQSVWsEt-8" target="TtQ4k8WLmAkrSQSVWsEt-10">
          <mxGeometry relative="1" as="geometry" />
        </mxCell>
        <mxCell id="TtQ4k8WLmAkrSQSVWsEt-17" value="FALSE" style="edgeLabel;html=1;align=center;verticalAlign=middle;resizable=0;points=[];" vertex="1" connectable="0" parent="TtQ4k8WLmAkrSQSVWsEt-11">
          <mxGeometry x="-0.5143" y="1" relative="1" as="geometry">
            <mxPoint x="-1" y="13" as="offset" />
          </mxGeometry>
        </mxCell>
        <mxCell id="TtQ4k8WLmAkrSQSVWsEt-13" value="" style="edgeStyle=orthogonalEdgeStyle;rounded=0;orthogonalLoop=1;jettySize=auto;html=1;" edge="1" parent="1" source="TtQ4k8WLmAkrSQSVWsEt-8" target="TtQ4k8WLmAkrSQSVWsEt-12">
          <mxGeometry relative="1" as="geometry" />
        </mxCell>
        <mxCell id="TtQ4k8WLmAkrSQSVWsEt-16" value="TRUE" style="edgeLabel;html=1;align=center;verticalAlign=middle;resizable=0;points=[];" vertex="1" connectable="0" parent="TtQ4k8WLmAkrSQSVWsEt-13">
          <mxGeometry x="0.2421" y="4" relative="1" as="geometry">
            <mxPoint x="-14" y="4" as="offset" />
          </mxGeometry>
        </mxCell>
        <mxCell id="TtQ4k8WLmAkrSQSVWsEt-8" value="if(availability[i])" style="rhombus;whiteSpace=wrap;html=1;" vertex="1" parent="1">
          <mxGeometry x="-660" y="700" width="110" height="80" as="geometry" />
        </mxCell>
        <mxCell id="TtQ4k8WLmAkrSQSVWsEt-10" value="cout &amp;lt;&amp;lt; &quot; is available\n&quot;" style="shape=parallelogram;perimeter=parallelogramPerimeter;whiteSpace=wrap;html=1;fixedSize=1;" vertex="1" parent="1">
          <mxGeometry x="-665" y="850" width="120" height="60" as="geometry" />
        </mxCell>
        <mxCell id="TtQ4k8WLmAkrSQSVWsEt-15" value="" style="edgeStyle=orthogonalEdgeStyle;rounded=0;orthogonalLoop=1;jettySize=auto;html=1;" edge="1" parent="1" source="TtQ4k8WLmAkrSQSVWsEt-12" target="TtQ4k8WLmAkrSQSVWsEt-14">
          <mxGeometry relative="1" as="geometry" />
        </mxCell>
        <mxCell id="TtQ4k8WLmAkrSQSVWsEt-12" value="else" style="rhombus;whiteSpace=wrap;html=1;" vertex="1" parent="1">
          <mxGeometry x="-455" y="700" width="80" height="80" as="geometry" />
        </mxCell>
        <mxCell id="TtQ4k8WLmAkrSQSVWsEt-14" value="cout &amp;lt;&amp;lt; &quot; is not available\n&quot;" style="shape=parallelogram;perimeter=parallelogramPerimeter;whiteSpace=wrap;html=1;fixedSize=1;" vertex="1" parent="1">
          <mxGeometry x="-475" y="850" width="120" height="60" as="geometry" />
        </mxCell>
        <mxCell id="TtQ4k8WLmAkrSQSVWsEt-21" value="" style="edgeStyle=orthogonalEdgeStyle;rounded=0;orthogonalLoop=1;jettySize=auto;html=1;" edge="1" parent="1" source="TtQ4k8WLmAkrSQSVWsEt-19" target="TtQ4k8WLmAkrSQSVWsEt-20">
          <mxGeometry relative="1" as="geometry" />
        </mxCell>
        <mxCell id="TtQ4k8WLmAkrSQSVWsEt-19" value="void borrowBook (vector &amp;lt;bool&amp;gt; &amp;amp;availability)" style="ellipse;whiteSpace=wrap;html=1;" vertex="1" parent="1">
          <mxGeometry x="-250" y="40" width="220" height="120" as="geometry" />
        </mxCell>
        <mxCell id="TtQ4k8WLmAkrSQSVWsEt-23" value="" style="edgeStyle=orthogonalEdgeStyle;rounded=0;orthogonalLoop=1;jettySize=auto;html=1;" edge="1" parent="1" source="TtQ4k8WLmAkrSQSVWsEt-20" target="TtQ4k8WLmAkrSQSVWsEt-22">
          <mxGeometry relative="1" as="geometry" />
        </mxCell>
        <mxCell id="TtQ4k8WLmAkrSQSVWsEt-20" value="int bookNumber;" style="whiteSpace=wrap;html=1;" vertex="1" parent="1">
          <mxGeometry x="-200" y="250" width="120" height="60" as="geometry" />
        </mxCell>
        <mxCell id="TtQ4k8WLmAkrSQSVWsEt-25" value="" style="edgeStyle=orthogonalEdgeStyle;rounded=0;orthogonalLoop=1;jettySize=auto;html=1;" edge="1" parent="1" source="TtQ4k8WLmAkrSQSVWsEt-22" target="TtQ4k8WLmAkrSQSVWsEt-24">
          <mxGeometry relative="1" as="geometry" />
        </mxCell>
        <mxCell id="TtQ4k8WLmAkrSQSVWsEt-22" value="cout &amp;lt;&amp;lt; &quot;Enter number of book which you want to choose: &quot;;" style="shape=parallelogram;perimeter=parallelogramPerimeter;whiteSpace=wrap;html=1;fixedSize=1;" vertex="1" parent="1">
          <mxGeometry x="-222.5" y="400" width="165" height="90" as="geometry" />
        </mxCell>
        <mxCell id="TtQ4k8WLmAkrSQSVWsEt-27" value="" style="edgeStyle=orthogonalEdgeStyle;rounded=0;orthogonalLoop=1;jettySize=auto;html=1;" edge="1" parent="1" source="TtQ4k8WLmAkrSQSVWsEt-24" target="TtQ4k8WLmAkrSQSVWsEt-26">
          <mxGeometry relative="1" as="geometry" />
        </mxCell>
        <mxCell id="TtQ4k8WLmAkrSQSVWsEt-24" value="cin &amp;gt;&amp;gt; bookNumber;" style="shape=parallelogram;perimeter=parallelogramPerimeter;whiteSpace=wrap;html=1;fixedSize=1;" vertex="1" parent="1">
          <mxGeometry x="-230" y="570" width="180" height="60" as="geometry" />
        </mxCell>
        <mxCell id="TtQ4k8WLmAkrSQSVWsEt-29" value="" style="edgeStyle=orthogonalEdgeStyle;rounded=0;orthogonalLoop=1;jettySize=auto;html=1;" edge="1" parent="1" source="TtQ4k8WLmAkrSQSVWsEt-26" target="TtQ4k8WLmAkrSQSVWsEt-28">
          <mxGeometry relative="1" as="geometry" />
        </mxCell>
        <mxCell id="TtQ4k8WLmAkrSQSVWsEt-33" value="TRUE" style="edgeLabel;html=1;align=center;verticalAlign=middle;resizable=0;points=[];" vertex="1" connectable="0" parent="TtQ4k8WLmAkrSQSVWsEt-29">
          <mxGeometry x="0.2013" y="-2" relative="1" as="geometry">
            <mxPoint x="2" y="-8" as="offset" />
          </mxGeometry>
        </mxCell>
        <mxCell id="TtQ4k8WLmAkrSQSVWsEt-36" value="" style="edgeStyle=orthogonalEdgeStyle;rounded=0;orthogonalLoop=1;jettySize=auto;html=1;" edge="1" parent="1" source="TtQ4k8WLmAkrSQSVWsEt-26" target="TtQ4k8WLmAkrSQSVWsEt-35">
          <mxGeometry relative="1" as="geometry" />
        </mxCell>
        <mxCell id="TtQ4k8WLmAkrSQSVWsEt-37" value="FALSE" style="edgeLabel;html=1;align=center;verticalAlign=middle;resizable=0;points=[];" vertex="1" connectable="0" parent="TtQ4k8WLmAkrSQSVWsEt-36">
          <mxGeometry x="0.0271" y="2" relative="1" as="geometry">
            <mxPoint as="offset" />
          </mxGeometry>
        </mxCell>
        <mxCell id="TtQ4k8WLmAkrSQSVWsEt-26" value="if(bookNumber &amp;lt; 1 || bookNumber &amp;gt; availability.size())" style="rhombus;whiteSpace=wrap;html=1;" vertex="1" parent="1">
          <mxGeometry x="-310" y="700" width="340" height="140" as="geometry" />
        </mxCell>
        <mxCell id="TtQ4k8WLmAkrSQSVWsEt-31" value="" style="edgeStyle=orthogonalEdgeStyle;rounded=0;orthogonalLoop=1;jettySize=auto;html=1;" edge="1" parent="1" source="TtQ4k8WLmAkrSQSVWsEt-28" target="TtQ4k8WLmAkrSQSVWsEt-30">
          <mxGeometry relative="1" as="geometry" />
        </mxCell>
        <mxCell id="TtQ4k8WLmAkrSQSVWsEt-28" value="cout &amp;lt;&amp;lt; &quot;Not correct number&quot;;" style="shape=parallelogram;perimeter=parallelogramPerimeter;whiteSpace=wrap;html=1;fixedSize=1;" vertex="1" parent="1">
          <mxGeometry x="-235" y="920" width="190" height="60" as="geometry" />
        </mxCell>
        <mxCell id="TtQ4k8WLmAkrSQSVWsEt-30" value="return" style="rounded=1;whiteSpace=wrap;html=1;" vertex="1" parent="1">
          <mxGeometry x="-200" y="1060" width="120" height="60" as="geometry" />
        </mxCell>
        <mxCell id="TtQ4k8WLmAkrSQSVWsEt-39" value="" style="edgeStyle=orthogonalEdgeStyle;rounded=0;orthogonalLoop=1;jettySize=auto;html=1;" edge="1" parent="1" source="TtQ4k8WLmAkrSQSVWsEt-35" target="TtQ4k8WLmAkrSQSVWsEt-38">
          <mxGeometry relative="1" as="geometry" />
        </mxCell>
        <mxCell id="TtQ4k8WLmAkrSQSVWsEt-40" value="TRUE" style="edgeLabel;html=1;align=center;verticalAlign=middle;resizable=0;points=[];" vertex="1" connectable="0" parent="TtQ4k8WLmAkrSQSVWsEt-39">
          <mxGeometry x="-0.1778" y="-2" relative="1" as="geometry">
            <mxPoint as="offset" />
          </mxGeometry>
        </mxCell>
        <mxCell id="TtQ4k8WLmAkrSQSVWsEt-44" value="" style="edgeStyle=orthogonalEdgeStyle;rounded=0;orthogonalLoop=1;jettySize=auto;html=1;" edge="1" parent="1" source="TtQ4k8WLmAkrSQSVWsEt-35" target="TtQ4k8WLmAkrSQSVWsEt-43">
          <mxGeometry relative="1" as="geometry" />
        </mxCell>
        <mxCell id="TtQ4k8WLmAkrSQSVWsEt-46" value="FALSE" style="edgeLabel;html=1;align=center;verticalAlign=middle;resizable=0;points=[];" vertex="1" connectable="0" parent="TtQ4k8WLmAkrSQSVWsEt-44">
          <mxGeometry x="-0.0963" y="-2" relative="1" as="geometry">
            <mxPoint x="9" y="-2" as="offset" />
          </mxGeometry>
        </mxCell>
        <mxCell id="TtQ4k8WLmAkrSQSVWsEt-35" value="if (availability[bookNumber-1])" style="rhombus;whiteSpace=wrap;html=1;" vertex="1" parent="1">
          <mxGeometry x="130" y="710" width="190" height="120" as="geometry" />
        </mxCell>
        <mxCell id="TtQ4k8WLmAkrSQSVWsEt-42" value="" style="edgeStyle=orthogonalEdgeStyle;rounded=0;orthogonalLoop=1;jettySize=auto;html=1;" edge="1" parent="1" source="TtQ4k8WLmAkrSQSVWsEt-38" target="TtQ4k8WLmAkrSQSVWsEt-41">
          <mxGeometry relative="1" as="geometry" />
        </mxCell>
        <mxCell id="TtQ4k8WLmAkrSQSVWsEt-38" value="availability[bookNumber-1] = false;" style="whiteSpace=wrap;html=1;" vertex="1" parent="1">
          <mxGeometry x="130" y="920" width="195" height="60" as="geometry" />
        </mxCell>
        <mxCell id="TtQ4k8WLmAkrSQSVWsEt-41" value="cout &amp;lt;&amp;lt; &quot;You borrow the book\n&quot;" style="shape=parallelogram;perimeter=parallelogramPerimeter;whiteSpace=wrap;html=1;fixedSize=1;" vertex="1" parent="1">
          <mxGeometry x="125" y="1060" width="205" height="60" as="geometry" />
        </mxCell>
        <mxCell id="TtQ4k8WLmAkrSQSVWsEt-48" value="" style="edgeStyle=orthogonalEdgeStyle;rounded=0;orthogonalLoop=1;jettySize=auto;html=1;" edge="1" parent="1" source="TtQ4k8WLmAkrSQSVWsEt-43" target="TtQ4k8WLmAkrSQSVWsEt-47">
          <mxGeometry relative="1" as="geometry" />
        </mxCell>
        <mxCell id="TtQ4k8WLmAkrSQSVWsEt-43" value="else" style="rhombus;whiteSpace=wrap;html=1;" vertex="1" parent="1">
          <mxGeometry x="414" y="730" width="80" height="80" as="geometry" />
        </mxCell>
        <mxCell id="TtQ4k8WLmAkrSQSVWsEt-47" value="cout &amp;lt;&amp;lt; &quot;That book was borrowed\n&quot;" style="shape=parallelogram;perimeter=parallelogramPerimeter;whiteSpace=wrap;html=1;fixedSize=1;" vertex="1" parent="1">
          <mxGeometry x="361.5" y="920" width="185" height="60" as="geometry" />
        </mxCell>
        <mxCell id="TtQ4k8WLmAkrSQSVWsEt-51" value="" style="edgeStyle=orthogonalEdgeStyle;rounded=0;orthogonalLoop=1;jettySize=auto;html=1;" edge="1" parent="1" source="TtQ4k8WLmAkrSQSVWsEt-49" target="TtQ4k8WLmAkrSQSVWsEt-50">
          <mxGeometry relative="1" as="geometry" />
        </mxCell>
        <mxCell id="TtQ4k8WLmAkrSQSVWsEt-49" value="void returnBook (vector&amp;lt;bool&amp;gt; &amp;amp;availability)" style="ellipse;whiteSpace=wrap;html=1;" vertex="1" parent="1">
          <mxGeometry x="180" y="40" width="250" height="120" as="geometry" />
        </mxCell>
        <mxCell id="TtQ4k8WLmAkrSQSVWsEt-53" value="" style="edgeStyle=orthogonalEdgeStyle;rounded=0;orthogonalLoop=1;jettySize=auto;html=1;" edge="1" parent="1" source="TtQ4k8WLmAkrSQSVWsEt-50" target="TtQ4k8WLmAkrSQSVWsEt-52">
          <mxGeometry relative="1" as="geometry" />
        </mxCell>
        <mxCell id="TtQ4k8WLmAkrSQSVWsEt-50" value="int bookNumber;" style="whiteSpace=wrap;html=1;" vertex="1" parent="1">
          <mxGeometry x="245" y="250" width="120" height="60" as="geometry" />
        </mxCell>
        <mxCell id="TtQ4k8WLmAkrSQSVWsEt-55" value="" style="edgeStyle=orthogonalEdgeStyle;rounded=0;orthogonalLoop=1;jettySize=auto;html=1;" edge="1" parent="1" source="TtQ4k8WLmAkrSQSVWsEt-52" target="TtQ4k8WLmAkrSQSVWsEt-54">
          <mxGeometry relative="1" as="geometry" />
        </mxCell>
        <mxCell id="TtQ4k8WLmAkrSQSVWsEt-52" value="cout &amp;lt;&amp;lt; &quot;Enter number of book which to return &quot;;" style="shape=parallelogram;perimeter=parallelogramPerimeter;whiteSpace=wrap;html=1;fixedSize=1;" vertex="1" parent="1">
          <mxGeometry x="222.5" y="390" width="165" height="60" as="geometry" />
        </mxCell>
        <mxCell id="TtQ4k8WLmAkrSQSVWsEt-57" value="" style="edgeStyle=orthogonalEdgeStyle;rounded=0;orthogonalLoop=1;jettySize=auto;html=1;" edge="1" parent="1" source="TtQ4k8WLmAkrSQSVWsEt-54" target="TtQ4k8WLmAkrSQSVWsEt-56">
          <mxGeometry relative="1" as="geometry" />
        </mxCell>
        <mxCell id="TtQ4k8WLmAkrSQSVWsEt-54" value="cin &amp;gt;&amp;gt; bookNumber;" style="shape=parallelogram;perimeter=parallelogramPerimeter;whiteSpace=wrap;html=1;fixedSize=1;" vertex="1" parent="1">
          <mxGeometry x="232.5" y="525" width="145" height="60" as="geometry" />
        </mxCell>
        <mxCell id="TtQ4k8WLmAkrSQSVWsEt-59" value="" style="edgeStyle=orthogonalEdgeStyle;rounded=0;orthogonalLoop=1;jettySize=auto;html=1;" edge="1" parent="1" source="TtQ4k8WLmAkrSQSVWsEt-56" target="TtQ4k8WLmAkrSQSVWsEt-58">
          <mxGeometry relative="1" as="geometry" />
        </mxCell>
        <mxCell id="TtQ4k8WLmAkrSQSVWsEt-60" value="TRUE" style="edgeLabel;html=1;align=center;verticalAlign=middle;resizable=0;points=[];" vertex="1" connectable="0" parent="TtQ4k8WLmAkrSQSVWsEt-59">
          <mxGeometry x="-0.0908" y="-2" relative="1" as="geometry">
            <mxPoint as="offset" />
          </mxGeometry>
        </mxCell>
        <mxCell id="TtQ4k8WLmAkrSQSVWsEt-64" value="" style="edgeStyle=orthogonalEdgeStyle;rounded=0;orthogonalLoop=1;jettySize=auto;html=1;" edge="1" parent="1" source="TtQ4k8WLmAkrSQSVWsEt-56" target="TtQ4k8WLmAkrSQSVWsEt-63">
          <mxGeometry relative="1" as="geometry" />
        </mxCell>
        <mxCell id="TtQ4k8WLmAkrSQSVWsEt-75" value="FALSE" style="edgeLabel;html=1;align=center;verticalAlign=middle;resizable=0;points=[];" vertex="1" connectable="0" parent="TtQ4k8WLmAkrSQSVWsEt-64">
          <mxGeometry x="-0.1264" relative="1" as="geometry">
            <mxPoint as="offset" />
          </mxGeometry>
        </mxCell>
        <mxCell id="TtQ4k8WLmAkrSQSVWsEt-56" value="if(bookNumber &amp;lt; 1 || bookNumber &amp;gt; availability.size())" style="rhombus;whiteSpace=wrap;html=1;" vertex="1" parent="1">
          <mxGeometry x="494" y="477.5" width="230" height="155" as="geometry" />
        </mxCell>
        <mxCell id="TtQ4k8WLmAkrSQSVWsEt-62" value="" style="edgeStyle=orthogonalEdgeStyle;rounded=0;orthogonalLoop=1;jettySize=auto;html=1;" edge="1" parent="1" source="TtQ4k8WLmAkrSQSVWsEt-58" target="TtQ4k8WLmAkrSQSVWsEt-61">
          <mxGeometry relative="1" as="geometry" />
        </mxCell>
        <mxCell id="TtQ4k8WLmAkrSQSVWsEt-58" value="cout &amp;lt;&amp;lt; &quot;not correct number&quot;;" style="shape=parallelogram;perimeter=parallelogramPerimeter;whiteSpace=wrap;html=1;fixedSize=1;" vertex="1" parent="1">
          <mxGeometry x="508.5" y="320" width="201" height="60" as="geometry" />
        </mxCell>
        <mxCell id="TtQ4k8WLmAkrSQSVWsEt-61" value="return" style="rounded=1;whiteSpace=wrap;html=1;" vertex="1" parent="1">
          <mxGeometry x="543.5" y="180" width="131" height="60" as="geometry" />
        </mxCell>
        <mxCell id="TtQ4k8WLmAkrSQSVWsEt-66" value="" style="edgeStyle=orthogonalEdgeStyle;rounded=0;orthogonalLoop=1;jettySize=auto;html=1;" edge="1" parent="1" source="TtQ4k8WLmAkrSQSVWsEt-63" target="TtQ4k8WLmAkrSQSVWsEt-65">
          <mxGeometry relative="1" as="geometry">
            <Array as="points">
              <mxPoint x="931" y="680" />
              <mxPoint x="779" y="680" />
            </Array>
          </mxGeometry>
        </mxCell>
        <mxCell id="TtQ4k8WLmAkrSQSVWsEt-67" value="TRUE" style="edgeLabel;html=1;align=center;verticalAlign=middle;resizable=0;points=[];" vertex="1" connectable="0" parent="TtQ4k8WLmAkrSQSVWsEt-66">
          <mxGeometry x="0.0446" y="-1" relative="1" as="geometry">
            <mxPoint as="offset" />
          </mxGeometry>
        </mxCell>
        <mxCell id="TtQ4k8WLmAkrSQSVWsEt-71" value="" style="edgeStyle=orthogonalEdgeStyle;rounded=0;orthogonalLoop=1;jettySize=auto;html=1;" edge="1" parent="1" source="TtQ4k8WLmAkrSQSVWsEt-63" target="TtQ4k8WLmAkrSQSVWsEt-70">
          <mxGeometry relative="1" as="geometry">
            <Array as="points">
              <mxPoint x="931" y="680" />
              <mxPoint x="1080" y="680" />
            </Array>
          </mxGeometry>
        </mxCell>
        <mxCell id="TtQ4k8WLmAkrSQSVWsEt-74" value="FALSE" style="edgeLabel;html=1;align=center;verticalAlign=middle;resizable=0;points=[];" vertex="1" connectable="0" parent="TtQ4k8WLmAkrSQSVWsEt-71">
          <mxGeometry x="0.1213" y="-1" relative="1" as="geometry">
            <mxPoint x="-10" y="-1" as="offset" />
          </mxGeometry>
        </mxCell>
        <mxCell id="TtQ4k8WLmAkrSQSVWsEt-63" value="if(!availability[bookNumber-1])" style="rhombus;whiteSpace=wrap;html=1;" vertex="1" parent="1">
          <mxGeometry x="840" y="492.5" width="181" height="125" as="geometry" />
        </mxCell>
        <mxCell id="TtQ4k8WLmAkrSQSVWsEt-69" value="" style="edgeStyle=orthogonalEdgeStyle;rounded=0;orthogonalLoop=1;jettySize=auto;html=1;" edge="1" parent="1" source="TtQ4k8WLmAkrSQSVWsEt-65" target="TtQ4k8WLmAkrSQSVWsEt-68">
          <mxGeometry relative="1" as="geometry" />
        </mxCell>
        <mxCell id="TtQ4k8WLmAkrSQSVWsEt-65" value="availability[bookNumber-1] = true" style="whiteSpace=wrap;html=1;" vertex="1" parent="1">
          <mxGeometry x="674.5" y="750" width="210" height="60" as="geometry" />
        </mxCell>
        <mxCell id="TtQ4k8WLmAkrSQSVWsEt-68" value="cout &amp;lt;&amp;lt; &quot;You return the book\n&quot;" style="shape=parallelogram;perimeter=parallelogramPerimeter;whiteSpace=wrap;html=1;fixedSize=1;" vertex="1" parent="1">
          <mxGeometry x="679.25" y="890" width="200.5" height="60" as="geometry" />
        </mxCell>
        <mxCell id="TtQ4k8WLmAkrSQSVWsEt-73" value="" style="edgeStyle=orthogonalEdgeStyle;rounded=0;orthogonalLoop=1;jettySize=auto;html=1;" edge="1" parent="1" source="TtQ4k8WLmAkrSQSVWsEt-70" target="TtQ4k8WLmAkrSQSVWsEt-72">
          <mxGeometry relative="1" as="geometry" />
        </mxCell>
        <mxCell id="TtQ4k8WLmAkrSQSVWsEt-70" value="else" style="rhombus;whiteSpace=wrap;html=1;" vertex="1" parent="1">
          <mxGeometry x="1040" y="740" width="80" height="80" as="geometry" />
        </mxCell>
        <mxCell id="TtQ4k8WLmAkrSQSVWsEt-72" value="cout &amp;lt;&amp;lt; &quot;book is available\n&quot;" style="shape=parallelogram;perimeter=parallelogramPerimeter;whiteSpace=wrap;html=1;fixedSize=1;" vertex="1" parent="1">
          <mxGeometry x="990" y="890" width="180" height="60" as="geometry" />
        </mxCell>
        <mxCell id="TtQ4k8WLmAkrSQSVWsEt-78" value="" style="edgeStyle=orthogonalEdgeStyle;rounded=0;orthogonalLoop=1;jettySize=auto;html=1;" edge="1" parent="1" source="TtQ4k8WLmAkrSQSVWsEt-76" target="TtQ4k8WLmAkrSQSVWsEt-77">
          <mxGeometry relative="1" as="geometry" />
        </mxCell>
        <mxCell id="TtQ4k8WLmAkrSQSVWsEt-76" value="&lt;font style=&quot;font-size: 36px;&quot;&gt;main&lt;/font&gt;" style="ellipse;whiteSpace=wrap;html=1;" vertex="1" parent="1">
          <mxGeometry x="1340" y="30" width="200" height="110" as="geometry" />
        </mxCell>
        <mxCell id="TtQ4k8WLmAkrSQSVWsEt-80" value="" style="edgeStyle=orthogonalEdgeStyle;rounded=0;orthogonalLoop=1;jettySize=auto;html=1;" edge="1" parent="1" source="TtQ4k8WLmAkrSQSVWsEt-77" target="TtQ4k8WLmAkrSQSVWsEt-79">
          <mxGeometry relative="1" as="geometry" />
        </mxCell>
        <mxCell id="TtQ4k8WLmAkrSQSVWsEt-77" value="Initialize vector books;&lt;div&gt;Initialize vector available;&lt;/div&gt;" style="whiteSpace=wrap;html=1;" vertex="1" parent="1">
          <mxGeometry x="1345" y="220" width="190" height="60" as="geometry" />
        </mxCell>
        <mxCell id="TtQ4k8WLmAkrSQSVWsEt-82" value="" style="edgeStyle=orthogonalEdgeStyle;rounded=0;orthogonalLoop=1;jettySize=auto;html=1;" edge="1" parent="1" source="TtQ4k8WLmAkrSQSVWsEt-79" target="TtQ4k8WLmAkrSQSVWsEt-81">
          <mxGeometry relative="1" as="geometry" />
        </mxCell>
        <mxCell id="TtQ4k8WLmAkrSQSVWsEt-79" value="int choice;" style="whiteSpace=wrap;html=1;" vertex="1" parent="1">
          <mxGeometry x="1380" y="360" width="120" height="60" as="geometry" />
        </mxCell>
        <mxCell id="TtQ4k8WLmAkrSQSVWsEt-84" value="" style="edgeStyle=orthogonalEdgeStyle;rounded=0;orthogonalLoop=1;jettySize=auto;html=1;" edge="1" parent="1" source="TtQ4k8WLmAkrSQSVWsEt-81" target="TtQ4k8WLmAkrSQSVWsEt-83">
          <mxGeometry relative="1" as="geometry" />
        </mxCell>
        <mxCell id="TtQ4k8WLmAkrSQSVWsEt-81" value="bool continueProgram = true" style="whiteSpace=wrap;html=1;" vertex="1" parent="1">
          <mxGeometry x="1360" y="492.5" width="160" height="60" as="geometry" />
        </mxCell>
        <mxCell id="TtQ4k8WLmAkrSQSVWsEt-89" value="" style="edgeStyle=orthogonalEdgeStyle;rounded=0;orthogonalLoop=1;jettySize=auto;html=1;" edge="1" parent="1" source="TtQ4k8WLmAkrSQSVWsEt-83" target="TtQ4k8WLmAkrSQSVWsEt-88">
          <mxGeometry relative="1" as="geometry" />
        </mxCell>
        <mxCell id="TtQ4k8WLmAkrSQSVWsEt-83" value="while(continueProgram)" style="rhombus;whiteSpace=wrap;html=1;" vertex="1" parent="1">
          <mxGeometry x="1350" y="630" width="180" height="80" as="geometry" />
        </mxCell>
        <mxCell id="TtQ4k8WLmAkrSQSVWsEt-91" value="" style="edgeStyle=orthogonalEdgeStyle;rounded=0;orthogonalLoop=1;jettySize=auto;html=1;" edge="1" parent="1" source="TtQ4k8WLmAkrSQSVWsEt-88" target="TtQ4k8WLmAkrSQSVWsEt-90">
          <mxGeometry relative="1" as="geometry" />
        </mxCell>
        <mxCell id="TtQ4k8WLmAkrSQSVWsEt-88" value="cout &amp;lt;&amp;lt; &quot;\nMenu:\n&quot;;&amp;nbsp;&lt;div&gt;cout &amp;lt;&amp;lt; &quot;1. View all books\n&quot;;&amp;nbsp;&lt;/div&gt;&lt;div&gt;cout &amp;lt;&amp;lt; &quot;2. Borrow a book\n&quot;;&amp;nbsp;&lt;/div&gt;&lt;div&gt;cout &amp;lt;&amp;lt; &quot;3. Return a book\n&quot;;&amp;nbsp;&lt;/div&gt;&lt;div&gt;cout &amp;lt;&amp;lt; &quot;4. Exit\n&quot;;&amp;nbsp;&lt;/div&gt;&lt;div&gt;cout &amp;lt;&amp;lt; &quot;Your choice: &quot;;&lt;/div&gt;" style="shape=parallelogram;perimeter=parallelogramPerimeter;whiteSpace=wrap;html=1;fixedSize=1;" vertex="1" parent="1">
          <mxGeometry x="1340" y="790" width="200" height="110" as="geometry" />
        </mxCell>
        <mxCell id="TtQ4k8WLmAkrSQSVWsEt-93" value="" style="edgeStyle=orthogonalEdgeStyle;rounded=0;orthogonalLoop=1;jettySize=auto;html=1;" edge="1" parent="1">
          <mxGeometry relative="1" as="geometry">
            <mxPoint x="1479.9985057471265" y="1040.0344827586207" as="sourcePoint" />
            <mxPoint x="1760.01" y="130" as="targetPoint" />
          </mxGeometry>
        </mxCell>
        <mxCell id="TtQ4k8WLmAkrSQSVWsEt-90" value="cin &amp;gt;&amp;gt; choice;" style="shape=parallelogram;perimeter=parallelogramPerimeter;whiteSpace=wrap;html=1;fixedSize=1;" vertex="1" parent="1">
          <mxGeometry x="1380" y="1005" width="120" height="60" as="geometry" />
        </mxCell>
        <mxCell id="TtQ4k8WLmAkrSQSVWsEt-111" value="" style="edgeStyle=orthogonalEdgeStyle;rounded=0;orthogonalLoop=1;jettySize=auto;html=1;" edge="1" parent="1" source="TtQ4k8WLmAkrSQSVWsEt-109" target="TtQ4k8WLmAkrSQSVWsEt-110">
          <mxGeometry relative="1" as="geometry" />
        </mxCell>
        <mxCell id="TtQ4k8WLmAkrSQSVWsEt-109" value="switch case" style="rounded=0;whiteSpace=wrap;html=1;" vertex="1" parent="1">
          <mxGeometry x="1690" y="70" width="150" height="60" as="geometry" />
        </mxCell>
        <mxCell id="TtQ4k8WLmAkrSQSVWsEt-115" value="" style="edgeStyle=orthogonalEdgeStyle;rounded=0;orthogonalLoop=1;jettySize=auto;html=1;" edge="1" parent="1" source="TtQ4k8WLmAkrSQSVWsEt-110" target="TtQ4k8WLmAkrSQSVWsEt-114">
          <mxGeometry relative="1" as="geometry" />
        </mxCell>
        <mxCell id="TtQ4k8WLmAkrSQSVWsEt-116" value="TRUE" style="edgeLabel;html=1;align=center;verticalAlign=middle;resizable=0;points=[];" vertex="1" connectable="0" parent="TtQ4k8WLmAkrSQSVWsEt-115">
          <mxGeometry x="0.0381" y="2" relative="1" as="geometry">
            <mxPoint as="offset" />
          </mxGeometry>
        </mxCell>
        <mxCell id="TtQ4k8WLmAkrSQSVWsEt-118" value="" style="edgeStyle=orthogonalEdgeStyle;rounded=0;orthogonalLoop=1;jettySize=auto;html=1;" edge="1" parent="1" source="TtQ4k8WLmAkrSQSVWsEt-110" target="TtQ4k8WLmAkrSQSVWsEt-117">
          <mxGeometry relative="1" as="geometry" />
        </mxCell>
        <mxCell id="TtQ4k8WLmAkrSQSVWsEt-137" value="FALSE" style="edgeLabel;html=1;align=center;verticalAlign=middle;resizable=0;points=[];" vertex="1" connectable="0" parent="TtQ4k8WLmAkrSQSVWsEt-118">
          <mxGeometry x="-0.1167" relative="1" as="geometry">
            <mxPoint as="offset" />
          </mxGeometry>
        </mxCell>
        <mxCell id="TtQ4k8WLmAkrSQSVWsEt-110" value="case 1" style="rhombus;whiteSpace=wrap;html=1;rounded=0;" vertex="1" parent="1">
          <mxGeometry x="1955" y="60" width="80" height="80" as="geometry" />
        </mxCell>
        <mxCell id="TtQ4k8WLmAkrSQSVWsEt-144" style="edgeStyle=orthogonalEdgeStyle;rounded=0;orthogonalLoop=1;jettySize=auto;html=1;entryX=0.5;entryY=0;entryDx=0;entryDy=0;" edge="1" parent="1" source="TtQ4k8WLmAkrSQSVWsEt-114" target="TtQ4k8WLmAkrSQSVWsEt-141">
          <mxGeometry relative="1" as="geometry" />
        </mxCell>
        <mxCell id="TtQ4k8WLmAkrSQSVWsEt-114" value="listBooks(books,availability);break;" style="shape=parallelogram;perimeter=parallelogramPerimeter;whiteSpace=wrap;html=1;fixedSize=1;rounded=0;" vertex="1" parent="1">
          <mxGeometry x="2160" y="70" width="225" height="60" as="geometry" />
        </mxCell>
        <mxCell id="TtQ4k8WLmAkrSQSVWsEt-120" value="" style="edgeStyle=orthogonalEdgeStyle;rounded=0;orthogonalLoop=1;jettySize=auto;html=1;" edge="1" parent="1" source="TtQ4k8WLmAkrSQSVWsEt-117" target="TtQ4k8WLmAkrSQSVWsEt-119">
          <mxGeometry relative="1" as="geometry" />
        </mxCell>
        <mxCell id="TtQ4k8WLmAkrSQSVWsEt-121" value="TRUE" style="edgeLabel;html=1;align=center;verticalAlign=middle;resizable=0;points=[];" vertex="1" connectable="0" parent="TtQ4k8WLmAkrSQSVWsEt-120">
          <mxGeometry x="-0.081" y="1" relative="1" as="geometry">
            <mxPoint as="offset" />
          </mxGeometry>
        </mxCell>
        <mxCell id="TtQ4k8WLmAkrSQSVWsEt-123" value="" style="edgeStyle=orthogonalEdgeStyle;rounded=0;orthogonalLoop=1;jettySize=auto;html=1;" edge="1" parent="1" source="TtQ4k8WLmAkrSQSVWsEt-117" target="TtQ4k8WLmAkrSQSVWsEt-122">
          <mxGeometry relative="1" as="geometry" />
        </mxCell>
        <mxCell id="TtQ4k8WLmAkrSQSVWsEt-138" value="FALSE" style="edgeLabel;html=1;align=center;verticalAlign=middle;resizable=0;points=[];" vertex="1" connectable="0" parent="TtQ4k8WLmAkrSQSVWsEt-123">
          <mxGeometry x="-0.2625" y="-1" relative="1" as="geometry">
            <mxPoint as="offset" />
          </mxGeometry>
        </mxCell>
        <mxCell id="TtQ4k8WLmAkrSQSVWsEt-117" value="case 2" style="rhombus;whiteSpace=wrap;html=1;rounded=0;" vertex="1" parent="1">
          <mxGeometry x="1955" y="220" width="80" height="80" as="geometry" />
        </mxCell>
        <mxCell id="TtQ4k8WLmAkrSQSVWsEt-119" value="borrowBook(availability);break;" style="shape=parallelogram;perimeter=parallelogramPerimeter;whiteSpace=wrap;html=1;fixedSize=1;rounded=0;" vertex="1" parent="1">
          <mxGeometry x="2160" y="230" width="205" height="60" as="geometry" />
        </mxCell>
        <mxCell id="TtQ4k8WLmAkrSQSVWsEt-125" value="" style="edgeStyle=orthogonalEdgeStyle;rounded=0;orthogonalLoop=1;jettySize=auto;html=1;" edge="1" parent="1" source="TtQ4k8WLmAkrSQSVWsEt-122" target="TtQ4k8WLmAkrSQSVWsEt-124">
          <mxGeometry relative="1" as="geometry" />
        </mxCell>
        <mxCell id="TtQ4k8WLmAkrSQSVWsEt-134" value="TRUE" style="edgeLabel;html=1;align=center;verticalAlign=middle;resizable=0;points=[];" vertex="1" connectable="0" parent="TtQ4k8WLmAkrSQSVWsEt-125">
          <mxGeometry x="0.0321" y="1" relative="1" as="geometry">
            <mxPoint as="offset" />
          </mxGeometry>
        </mxCell>
        <mxCell id="TtQ4k8WLmAkrSQSVWsEt-127" value="" style="edgeStyle=orthogonalEdgeStyle;rounded=0;orthogonalLoop=1;jettySize=auto;html=1;" edge="1" parent="1" source="TtQ4k8WLmAkrSQSVWsEt-122" target="TtQ4k8WLmAkrSQSVWsEt-126">
          <mxGeometry relative="1" as="geometry" />
        </mxCell>
        <mxCell id="TtQ4k8WLmAkrSQSVWsEt-139" value="FALSE" style="edgeLabel;html=1;align=center;verticalAlign=middle;resizable=0;points=[];" vertex="1" connectable="0" parent="TtQ4k8WLmAkrSQSVWsEt-127">
          <mxGeometry x="-0.3042" y="1" relative="1" as="geometry">
            <mxPoint as="offset" />
          </mxGeometry>
        </mxCell>
        <mxCell id="TtQ4k8WLmAkrSQSVWsEt-122" value="case 3" style="rhombus;whiteSpace=wrap;html=1;rounded=0;" vertex="1" parent="1">
          <mxGeometry x="1955" y="380" width="80" height="80" as="geometry" />
        </mxCell>
        <mxCell id="TtQ4k8WLmAkrSQSVWsEt-145" style="edgeStyle=orthogonalEdgeStyle;rounded=0;orthogonalLoop=1;jettySize=auto;html=1;entryX=0.5;entryY=0;entryDx=0;entryDy=0;" edge="1" parent="1" source="TtQ4k8WLmAkrSQSVWsEt-124" target="TtQ4k8WLmAkrSQSVWsEt-141">
          <mxGeometry relative="1" as="geometry" />
        </mxCell>
        <mxCell id="TtQ4k8WLmAkrSQSVWsEt-124" value="returnBook(availability);break;" style="shape=parallelogram;perimeter=parallelogramPerimeter;whiteSpace=wrap;html=1;fixedSize=1;rounded=0;" vertex="1" parent="1">
          <mxGeometry x="2160" y="390" width="185" height="60" as="geometry" />
        </mxCell>
        <mxCell id="TtQ4k8WLmAkrSQSVWsEt-129" value="" style="edgeStyle=orthogonalEdgeStyle;rounded=0;orthogonalLoop=1;jettySize=auto;html=1;" edge="1" parent="1" source="TtQ4k8WLmAkrSQSVWsEt-126" target="TtQ4k8WLmAkrSQSVWsEt-128">
          <mxGeometry relative="1" as="geometry" />
        </mxCell>
        <mxCell id="TtQ4k8WLmAkrSQSVWsEt-135" value="TRUE" style="edgeLabel;html=1;align=center;verticalAlign=middle;resizable=0;points=[];" vertex="1" connectable="0" parent="TtQ4k8WLmAkrSQSVWsEt-129">
          <mxGeometry x="0.048" relative="1" as="geometry">
            <mxPoint as="offset" />
          </mxGeometry>
        </mxCell>
        <mxCell id="TtQ4k8WLmAkrSQSVWsEt-131" value="" style="edgeStyle=orthogonalEdgeStyle;rounded=0;orthogonalLoop=1;jettySize=auto;html=1;" edge="1" parent="1" source="TtQ4k8WLmAkrSQSVWsEt-126" target="TtQ4k8WLmAkrSQSVWsEt-130">
          <mxGeometry relative="1" as="geometry" />
        </mxCell>
        <mxCell id="TtQ4k8WLmAkrSQSVWsEt-140" value="FALSE" style="edgeLabel;html=1;align=center;verticalAlign=middle;resizable=0;points=[];" vertex="1" connectable="0" parent="TtQ4k8WLmAkrSQSVWsEt-131">
          <mxGeometry x="-0.0111" y="-1" relative="1" as="geometry">
            <mxPoint as="offset" />
          </mxGeometry>
        </mxCell>
        <mxCell id="TtQ4k8WLmAkrSQSVWsEt-126" value="case 4" style="rhombus;whiteSpace=wrap;html=1;rounded=0;" vertex="1" parent="1">
          <mxGeometry x="1955" y="540" width="80" height="80" as="geometry" />
        </mxCell>
        <mxCell id="TtQ4k8WLmAkrSQSVWsEt-146" style="edgeStyle=orthogonalEdgeStyle;rounded=0;orthogonalLoop=1;jettySize=auto;html=1;entryX=0.5;entryY=0;entryDx=0;entryDy=0;" edge="1" parent="1" source="TtQ4k8WLmAkrSQSVWsEt-128" target="TtQ4k8WLmAkrSQSVWsEt-141">
          <mxGeometry relative="1" as="geometry" />
        </mxCell>
        <mxCell id="TtQ4k8WLmAkrSQSVWsEt-128" value="continueProgram = false; break;" style="shape=parallelogram;perimeter=parallelogramPerimeter;whiteSpace=wrap;html=1;fixedSize=1;rounded=0;" vertex="1" parent="1">
          <mxGeometry x="2150" y="550" width="195" height="60" as="geometry" />
        </mxCell>
        <mxCell id="TtQ4k8WLmAkrSQSVWsEt-133" value="" style="edgeStyle=orthogonalEdgeStyle;rounded=0;orthogonalLoop=1;jettySize=auto;html=1;" edge="1" parent="1" source="TtQ4k8WLmAkrSQSVWsEt-130" target="TtQ4k8WLmAkrSQSVWsEt-132">
          <mxGeometry relative="1" as="geometry" />
        </mxCell>
        <mxCell id="TtQ4k8WLmAkrSQSVWsEt-136" value="TRUE" style="edgeLabel;html=1;align=center;verticalAlign=middle;resizable=0;points=[];" vertex="1" connectable="0" parent="TtQ4k8WLmAkrSQSVWsEt-133">
          <mxGeometry x="0.0889" relative="1" as="geometry">
            <mxPoint as="offset" />
          </mxGeometry>
        </mxCell>
        <mxCell id="TtQ4k8WLmAkrSQSVWsEt-130" value="default" style="whiteSpace=wrap;html=1;rounded=0;" vertex="1" parent="1">
          <mxGeometry x="1935" y="710" width="120" height="60" as="geometry" />
        </mxCell>
        <mxCell id="TtQ4k8WLmAkrSQSVWsEt-147" style="edgeStyle=orthogonalEdgeStyle;rounded=0;orthogonalLoop=1;jettySize=auto;html=1;entryX=0.5;entryY=0;entryDx=0;entryDy=0;" edge="1" parent="1" source="TtQ4k8WLmAkrSQSVWsEt-132" target="TtQ4k8WLmAkrSQSVWsEt-141">
          <mxGeometry relative="1" as="geometry" />
        </mxCell>
        <mxCell id="TtQ4k8WLmAkrSQSVWsEt-132" value="cout &amp;lt;&amp;lt; &quot;Not correct choice, try again pls&quot;; goto main_menu;" style="shape=parallelogram;perimeter=parallelogramPerimeter;whiteSpace=wrap;html=1;fixedSize=1;rounded=0;" vertex="1" parent="1">
          <mxGeometry x="2150" y="710" width="195" height="60" as="geometry" />
        </mxCell>
        <mxCell id="TtQ4k8WLmAkrSQSVWsEt-149" value="" style="edgeStyle=orthogonalEdgeStyle;rounded=0;orthogonalLoop=1;jettySize=auto;html=1;" edge="1" parent="1" source="TtQ4k8WLmAkrSQSVWsEt-141" target="TtQ4k8WLmAkrSQSVWsEt-148">
          <mxGeometry relative="1" as="geometry" />
        </mxCell>
        <mxCell id="TtQ4k8WLmAkrSQSVWsEt-150" value="TRUE" style="edgeLabel;html=1;align=center;verticalAlign=middle;resizable=0;points=[];" vertex="1" connectable="0" parent="TtQ4k8WLmAkrSQSVWsEt-149">
          <mxGeometry x="0.0595" y="3" relative="1" as="geometry">
            <mxPoint as="offset" />
          </mxGeometry>
        </mxCell>
        <mxCell id="TtQ4k8WLmAkrSQSVWsEt-154" value="" style="edgeStyle=orthogonalEdgeStyle;rounded=0;orthogonalLoop=1;jettySize=auto;html=1;" edge="1" parent="1" source="TtQ4k8WLmAkrSQSVWsEt-141" target="TtQ4k8WLmAkrSQSVWsEt-153">
          <mxGeometry relative="1" as="geometry" />
        </mxCell>
        <mxCell id="TtQ4k8WLmAkrSQSVWsEt-155" value="FALSE" style="edgeLabel;html=1;align=center;verticalAlign=middle;resizable=0;points=[];" vertex="1" connectable="0" parent="TtQ4k8WLmAkrSQSVWsEt-154">
          <mxGeometry x="-0.21" y="3" relative="1" as="geometry">
            <mxPoint as="offset" />
          </mxGeometry>
        </mxCell>
        <mxCell id="TtQ4k8WLmAkrSQSVWsEt-141" value="if(!continueProgram)" style="rhombus;whiteSpace=wrap;html=1;rounded=0;" vertex="1" parent="1">
          <mxGeometry x="2440" y="820" width="145" height="100" as="geometry" />
        </mxCell>
        <mxCell id="TtQ4k8WLmAkrSQSVWsEt-148" value="break;" style="whiteSpace=wrap;html=1;rounded=0;" vertex="1" parent="1">
          <mxGeometry x="2677.5" y="840" width="120" height="60" as="geometry" />
        </mxCell>
        <mxCell id="TtQ4k8WLmAkrSQSVWsEt-157" value="" style="edgeStyle=orthogonalEdgeStyle;rounded=0;orthogonalLoop=1;jettySize=auto;html=1;" edge="1" parent="1" source="TtQ4k8WLmAkrSQSVWsEt-153" target="TtQ4k8WLmAkrSQSVWsEt-156">
          <mxGeometry relative="1" as="geometry" />
        </mxCell>
        <mxCell id="TtQ4k8WLmAkrSQSVWsEt-153" value="char anotherOption;" style="whiteSpace=wrap;html=1;rounded=0;" vertex="1" parent="1">
          <mxGeometry x="2452.5" y="990" width="120" height="60" as="geometry" />
        </mxCell>
        <mxCell id="TtQ4k8WLmAkrSQSVWsEt-159" value="" style="edgeStyle=orthogonalEdgeStyle;rounded=0;orthogonalLoop=1;jettySize=auto;html=1;" edge="1" parent="1" source="TtQ4k8WLmAkrSQSVWsEt-156" target="TtQ4k8WLmAkrSQSVWsEt-158">
          <mxGeometry relative="1" as="geometry" />
        </mxCell>
        <mxCell id="TtQ4k8WLmAkrSQSVWsEt-156" value="do" style="whiteSpace=wrap;html=1;rounded=0;" vertex="1" parent="1">
          <mxGeometry x="2680" y="990" width="120" height="60" as="geometry" />
        </mxCell>
        <mxCell id="TtQ4k8WLmAkrSQSVWsEt-161" value="" style="edgeStyle=orthogonalEdgeStyle;rounded=0;orthogonalLoop=1;jettySize=auto;html=1;" edge="1" parent="1" source="TtQ4k8WLmAkrSQSVWsEt-158" target="TtQ4k8WLmAkrSQSVWsEt-160">
          <mxGeometry relative="1" as="geometry" />
        </mxCell>
        <mxCell id="TtQ4k8WLmAkrSQSVWsEt-158" value="cout &amp;lt;&amp;lt; &quot;Do you want to perform another operation? Y/N&quot; &amp;lt;&amp;lt; endl;" style="shape=parallelogram;perimeter=parallelogramPerimeter;whiteSpace=wrap;html=1;fixedSize=1;rounded=0;" vertex="1" parent="1">
          <mxGeometry x="2880" y="990" width="210" height="60" as="geometry" />
        </mxCell>
        <mxCell id="TtQ4k8WLmAkrSQSVWsEt-163" value="" style="edgeStyle=orthogonalEdgeStyle;rounded=0;orthogonalLoop=1;jettySize=auto;html=1;" edge="1" parent="1" source="TtQ4k8WLmAkrSQSVWsEt-160" target="TtQ4k8WLmAkrSQSVWsEt-162">
          <mxGeometry relative="1" as="geometry" />
        </mxCell>
        <mxCell id="TtQ4k8WLmAkrSQSVWsEt-160" value="cin &amp;gt;&amp;gt; anotherOption;" style="shape=parallelogram;perimeter=parallelogramPerimeter;whiteSpace=wrap;html=1;fixedSize=1;rounded=0;" vertex="1" parent="1">
          <mxGeometry x="2902.5" y="840" width="165" height="60" as="geometry" />
        </mxCell>
        <mxCell id="TtQ4k8WLmAkrSQSVWsEt-165" value="" style="edgeStyle=orthogonalEdgeStyle;rounded=0;orthogonalLoop=1;jettySize=auto;html=1;" edge="1" parent="1" source="TtQ4k8WLmAkrSQSVWsEt-162" target="TtQ4k8WLmAkrSQSVWsEt-164">
          <mxGeometry relative="1" as="geometry" />
        </mxCell>
        <mxCell id="TtQ4k8WLmAkrSQSVWsEt-167" value="TRUE" style="edgeLabel;html=1;align=center;verticalAlign=middle;resizable=0;points=[];" vertex="1" connectable="0" parent="TtQ4k8WLmAkrSQSVWsEt-165">
          <mxGeometry x="0.2891" y="2" relative="1" as="geometry">
            <mxPoint x="-17" y="2" as="offset" />
          </mxGeometry>
        </mxCell>
        <mxCell id="TtQ4k8WLmAkrSQSVWsEt-171" value="" style="edgeStyle=orthogonalEdgeStyle;rounded=0;orthogonalLoop=1;jettySize=auto;html=1;" edge="1" parent="1" source="TtQ4k8WLmAkrSQSVWsEt-162" target="TtQ4k8WLmAkrSQSVWsEt-170">
          <mxGeometry relative="1" as="geometry" />
        </mxCell>
        <mxCell id="TtQ4k8WLmAkrSQSVWsEt-174" value="FALSE" style="edgeLabel;html=1;align=center;verticalAlign=middle;resizable=0;points=[];" vertex="1" connectable="0" parent="TtQ4k8WLmAkrSQSVWsEt-171">
          <mxGeometry x="-0.0864" y="-2" relative="1" as="geometry">
            <mxPoint as="offset" />
          </mxGeometry>
        </mxCell>
        <mxCell id="TtQ4k8WLmAkrSQSVWsEt-162" value="if(anotherOption == &#39;n&#39; || anotherOption == &#39;N&#39;)" style="rhombus;whiteSpace=wrap;html=1;rounded=0;" vertex="1" parent="1">
          <mxGeometry x="2882.5" y="650" width="205" height="120" as="geometry" />
        </mxCell>
        <mxCell id="TtQ4k8WLmAkrSQSVWsEt-169" value="" style="edgeStyle=orthogonalEdgeStyle;rounded=0;orthogonalLoop=1;jettySize=auto;html=1;" edge="1" parent="1" source="TtQ4k8WLmAkrSQSVWsEt-164" target="TtQ4k8WLmAkrSQSVWsEt-168">
          <mxGeometry relative="1" as="geometry" />
        </mxCell>
        <mxCell id="TtQ4k8WLmAkrSQSVWsEt-164" value="continueProgram = false;" style="whiteSpace=wrap;html=1;rounded=0;" vertex="1" parent="1">
          <mxGeometry x="3210" y="680" width="150" height="60" as="geometry" />
        </mxCell>
        <mxCell id="TtQ4k8WLmAkrSQSVWsEt-168" value="break;" style="rounded=0;whiteSpace=wrap;html=1;" vertex="1" parent="1">
          <mxGeometry x="3455" y="680" width="120" height="60" as="geometry" />
        </mxCell>
        <mxCell id="TtQ4k8WLmAkrSQSVWsEt-173" value="" style="edgeStyle=orthogonalEdgeStyle;rounded=0;orthogonalLoop=1;jettySize=auto;html=1;" edge="1" parent="1" source="TtQ4k8WLmAkrSQSVWsEt-170" target="TtQ4k8WLmAkrSQSVWsEt-172">
          <mxGeometry relative="1" as="geometry" />
        </mxCell>
        <mxCell id="TtQ4k8WLmAkrSQSVWsEt-175" value="TRUE" style="edgeLabel;html=1;align=center;verticalAlign=middle;resizable=0;points=[];" vertex="1" connectable="0" parent="TtQ4k8WLmAkrSQSVWsEt-173">
          <mxGeometry x="-0.0375" y="-3" relative="1" as="geometry">
            <mxPoint y="-3" as="offset" />
          </mxGeometry>
        </mxCell>
        <mxCell id="TtQ4k8WLmAkrSQSVWsEt-177" value="" style="edgeStyle=orthogonalEdgeStyle;rounded=0;orthogonalLoop=1;jettySize=auto;html=1;" edge="1" parent="1" source="TtQ4k8WLmAkrSQSVWsEt-170" target="TtQ4k8WLmAkrSQSVWsEt-176">
          <mxGeometry relative="1" as="geometry" />
        </mxCell>
        <mxCell id="TtQ4k8WLmAkrSQSVWsEt-170" value="else if (anotherOption == &#39;y&#39; || anotherOption == &#39;Y&#39;)" style="rhombus;whiteSpace=wrap;html=1;rounded=0;" vertex="1" parent="1">
          <mxGeometry x="2882.5" y="450" width="205" height="120" as="geometry" />
        </mxCell>
        <mxCell id="TtQ4k8WLmAkrSQSVWsEt-172" value="break;" style="whiteSpace=wrap;html=1;rounded=0;" vertex="1" parent="1">
          <mxGeometry x="3210" y="480" width="120" height="60" as="geometry" />
        </mxCell>
        <mxCell id="TtQ4k8WLmAkrSQSVWsEt-179" value="" style="edgeStyle=orthogonalEdgeStyle;rounded=0;orthogonalLoop=1;jettySize=auto;html=1;" edge="1" parent="1" source="TtQ4k8WLmAkrSQSVWsEt-176" target="TtQ4k8WLmAkrSQSVWsEt-178">
          <mxGeometry relative="1" as="geometry" />
        </mxCell>
        <mxCell id="TtQ4k8WLmAkrSQSVWsEt-181" value="" style="edgeStyle=orthogonalEdgeStyle;rounded=0;orthogonalLoop=1;jettySize=auto;html=1;" edge="1" parent="1" source="TtQ4k8WLmAkrSQSVWsEt-176" target="TtQ4k8WLmAkrSQSVWsEt-180">
          <mxGeometry relative="1" as="geometry" />
        </mxCell>
        <mxCell id="TtQ4k8WLmAkrSQSVWsEt-176" value="else" style="rhombus;whiteSpace=wrap;html=1;rounded=0;" vertex="1" parent="1">
          <mxGeometry x="2945" y="300" width="80" height="80" as="geometry" />
        </mxCell>
        <mxCell id="TtQ4k8WLmAkrSQSVWsEt-178" value="cout &amp;lt;&amp;lt; &quot;Not correct choice&quot;;" style="shape=parallelogram;perimeter=parallelogramPerimeter;whiteSpace=wrap;html=1;fixedSize=1;rounded=0;" vertex="1" parent="1">
          <mxGeometry x="3210" y="310" width="180" height="60" as="geometry" />
        </mxCell>
        <mxCell id="TtQ4k8WLmAkrSQSVWsEt-183" value="" style="edgeStyle=orthogonalEdgeStyle;rounded=0;orthogonalLoop=1;jettySize=auto;html=1;" edge="1" parent="1" source="TtQ4k8WLmAkrSQSVWsEt-180" target="TtQ4k8WLmAkrSQSVWsEt-182">
          <mxGeometry relative="1" as="geometry" />
        </mxCell>
        <mxCell id="TtQ4k8WLmAkrSQSVWsEt-189" value="FALSE" style="edgeLabel;html=1;align=center;verticalAlign=middle;resizable=0;points=[];" vertex="1" connectable="0" parent="TtQ4k8WLmAkrSQSVWsEt-183">
          <mxGeometry x="0.1183" y="-1" relative="1" as="geometry">
            <mxPoint as="offset" />
          </mxGeometry>
        </mxCell>
        <mxCell id="TtQ4k8WLmAkrSQSVWsEt-186" style="edgeStyle=orthogonalEdgeStyle;rounded=0;orthogonalLoop=1;jettySize=auto;html=1;entryX=0.5;entryY=1;entryDx=0;entryDy=0;" edge="1" parent="1" source="TtQ4k8WLmAkrSQSVWsEt-180" target="TtQ4k8WLmAkrSQSVWsEt-156">
          <mxGeometry relative="1" as="geometry">
            <mxPoint x="3690" y="1110" as="targetPoint" />
            <Array as="points">
              <mxPoint x="3650" y="200" />
              <mxPoint x="3650" y="1070" />
              <mxPoint x="2740" y="1070" />
            </Array>
          </mxGeometry>
        </mxCell>
        <mxCell id="TtQ4k8WLmAkrSQSVWsEt-188" value="TRUE" style="edgeLabel;html=1;align=center;verticalAlign=middle;resizable=0;points=[];" vertex="1" connectable="0" parent="TtQ4k8WLmAkrSQSVWsEt-186">
          <mxGeometry x="-0.7637" y="1" relative="1" as="geometry">
            <mxPoint as="offset" />
          </mxGeometry>
        </mxCell>
        <mxCell id="TtQ4k8WLmAkrSQSVWsEt-180" value="while (true)" style="whiteSpace=wrap;html=1;rounded=0;" vertex="1" parent="1">
          <mxGeometry x="2925" y="170" width="120" height="60" as="geometry" />
        </mxCell>
        <mxCell id="TtQ4k8WLmAkrSQSVWsEt-185" style="edgeStyle=orthogonalEdgeStyle;rounded=0;orthogonalLoop=1;jettySize=auto;html=1;" edge="1" parent="1" source="TtQ4k8WLmAkrSQSVWsEt-182" target="TtQ4k8WLmAkrSQSVWsEt-184">
          <mxGeometry relative="1" as="geometry" />
        </mxCell>
        <mxCell id="TtQ4k8WLmAkrSQSVWsEt-182" value="cout &amp;lt;&amp;lt; &quot;End&quot;;" style="shape=parallelogram;perimeter=parallelogramPerimeter;whiteSpace=wrap;html=1;fixedSize=1;rounded=0;" vertex="1" parent="1">
          <mxGeometry x="2925" y="60" width="120" height="60" as="geometry" />
        </mxCell>
        <mxCell id="TtQ4k8WLmAkrSQSVWsEt-184" value="END" style="rounded=1;whiteSpace=wrap;html=1;" vertex="1" parent="1">
          <mxGeometry x="3240" y="60" width="120" height="60" as="geometry" />
        </mxCell>
      </root>
    </mxGraphModel>
  </diagram>
</mxfile>
